<mxfile host="app.diagrams.net" modified="2024-08-15T20:29:21.682Z" agent="Mozilla/5.0 (Windows NT 10.0; Win64; x64) AppleWebKit/537.36 (KHTML, like Gecko) Chrome/127.0.0.0 Safari/537.36" etag="gpyBXfXWy2nn3CYrR-G-" border="50" scale="3" compressed="false" locked="false" version="24.7.1" type="github">
  <diagram name="Blank" id="YmL12bMKpDGza6XwsDPr">
    <mxGraphModel dx="2202" dy="818" grid="0" gridSize="10" guides="1" tooltips="1" connect="1" arrows="1" fold="1" page="0" pageScale="1" pageWidth="827" pageHeight="1169" background="none" math="1" shadow="0">
      <root>
        <mxCell id="X5NqExCQtvZxIxQ7pmgY-0" />
        <mxCell id="1" parent="X5NqExCQtvZxIxQ7pmgY-0" />
        <mxCell id="QOvK0X-cOHujv5eJB9O8-1" value="parallelogram" style="whiteSpace=wrap;html=1;align=center;" vertex="1" parent="1">
          <mxGeometry x="-25" y="377" width="100" height="40" as="geometry" />
        </mxCell>
        <mxCell id="QOvK0X-cOHujv5eJB9O8-7" value="" style="strokeWidth=2;html=1;shape=mxgraph.flowchart.annotation_1;align=left;pointerEvents=1;" vertex="1" parent="1">
          <mxGeometry x="93" y="347" width="205" height="100" as="geometry" />
        </mxCell>
        <mxCell id="QOvK0X-cOHujv5eJB9O8-8" value="" style="line;strokeWidth=1;rotatable=0;dashed=0;labelPosition=right;align=left;verticalAlign=middle;spacingTop=0;spacingLeft=6;points=[];portConstraint=eastwest;" vertex="1" parent="1">
          <mxGeometry x="75" y="392" width="18" height="10" as="geometry" />
        </mxCell>
        <mxCell id="QOvK0X-cOHujv5eJB9O8-9" value="adjacent sides perpendicular" style="text;html=1;align=center;verticalAlign=middle;resizable=0;points=[];autosize=1;strokeColor=none;fillColor=none;" vertex="1" parent="1">
          <mxGeometry x="93" y="318" width="196" height="29" as="geometry" />
        </mxCell>
        <mxCell id="QOvK0X-cOHujv5eJB9O8-10" value="adjacent sides equal" style="text;html=1;align=center;verticalAlign=middle;resizable=0;points=[];autosize=1;strokeColor=none;fillColor=none;" vertex="1" parent="1">
          <mxGeometry x="93" y="417" width="146" height="29" as="geometry" />
        </mxCell>
        <mxCell id="QOvK0X-cOHujv5eJB9O8-11" value="diagonals&amp;nbsp; perpendicular" style="text;html=1;align=center;verticalAlign=middle;resizable=0;points=[];autosize=1;strokeColor=none;fillColor=none;" vertex="1" parent="1">
          <mxGeometry x="93" y="447" width="171" height="29" as="geometry" />
        </mxCell>
        <mxCell id="QOvK0X-cOHujv5eJB9O8-12" value="diagonals&amp;nbsp; equal" style="text;html=1;align=center;verticalAlign=middle;resizable=0;points=[];autosize=1;strokeColor=none;fillColor=none;" vertex="1" parent="1">
          <mxGeometry x="93" y="348" width="120" height="29" as="geometry" />
        </mxCell>
        <mxCell id="QOvK0X-cOHujv5eJB9O8-18" style="edgeStyle=orthogonalEdgeStyle;rounded=0;orthogonalLoop=1;jettySize=auto;html=1;entryX=0.5;entryY=0;entryDx=0;entryDy=0;" edge="1" parent="1" source="QOvK0X-cOHujv5eJB9O8-13" target="QOvK0X-cOHujv5eJB9O8-20">
          <mxGeometry relative="1" as="geometry">
            <mxPoint x="548.4000244140625" y="418.79998779296875" as="targetPoint" />
          </mxGeometry>
        </mxCell>
        <mxCell id="QOvK0X-cOHujv5eJB9O8-13" value="rectangle" style="whiteSpace=wrap;html=1;align=center;" vertex="1" parent="1">
          <mxGeometry x="298" y="325" width="100" height="40" as="geometry" />
        </mxCell>
        <mxCell id="QOvK0X-cOHujv5eJB9O8-19" style="edgeStyle=orthogonalEdgeStyle;rounded=0;orthogonalLoop=1;jettySize=auto;html=1;entryX=0.5;entryY=1;entryDx=0;entryDy=0;" edge="1" parent="1" source="QOvK0X-cOHujv5eJB9O8-14" target="QOvK0X-cOHujv5eJB9O8-20">
          <mxGeometry relative="1" as="geometry">
            <mxPoint x="566" y="446" as="targetPoint" />
          </mxGeometry>
        </mxCell>
        <mxCell id="QOvK0X-cOHujv5eJB9O8-14" value="rhombus" style="whiteSpace=wrap;html=1;align=center;" vertex="1" parent="1">
          <mxGeometry x="298" y="426" width="100" height="40" as="geometry" />
        </mxCell>
        <mxCell id="QOvK0X-cOHujv5eJB9O8-20" value="square" style="whiteSpace=wrap;html=1;align=center;" vertex="1" parent="1">
          <mxGeometry x="411" y="377" width="100" height="40" as="geometry" />
        </mxCell>
        <mxCell id="QOvK0X-cOHujv5eJB9O8-27" style="edgeStyle=orthogonalEdgeStyle;rounded=0;orthogonalLoop=1;jettySize=auto;html=1;exitX=1;exitY=0.5;exitDx=0;exitDy=0;entryX=0;entryY=0.5;entryDx=0;entryDy=0;" edge="1" parent="1" source="QOvK0X-cOHujv5eJB9O8-26" target="QOvK0X-cOHujv5eJB9O8-1">
          <mxGeometry relative="1" as="geometry" />
        </mxCell>
        <mxCell id="QOvK0X-cOHujv5eJB9O8-28" style="edgeStyle=orthogonalEdgeStyle;rounded=0;orthogonalLoop=1;jettySize=auto;html=1;exitX=0.5;exitY=0;exitDx=0;exitDy=0;entryX=0.5;entryY=0;entryDx=0;entryDy=0;" edge="1" parent="1" source="QOvK0X-cOHujv5eJB9O8-26" target="QOvK0X-cOHujv5eJB9O8-13">
          <mxGeometry relative="1" as="geometry" />
        </mxCell>
        <mxCell id="QOvK0X-cOHujv5eJB9O8-29" style="edgeStyle=orthogonalEdgeStyle;rounded=0;orthogonalLoop=1;jettySize=auto;html=1;exitX=0.5;exitY=1;exitDx=0;exitDy=0;entryX=0.5;entryY=1;entryDx=0;entryDy=0;" edge="1" parent="1" source="QOvK0X-cOHujv5eJB9O8-26" target="QOvK0X-cOHujv5eJB9O8-14">
          <mxGeometry relative="1" as="geometry" />
        </mxCell>
        <mxCell id="QOvK0X-cOHujv5eJB9O8-26" value="quadrilateral" style="whiteSpace=wrap;html=1;align=center;" vertex="1" parent="1">
          <mxGeometry x="-156" y="377" width="100" height="40" as="geometry" />
        </mxCell>
        <mxCell id="QOvK0X-cOHujv5eJB9O8-30" value="3 angles is right angle" style="text;html=1;align=center;verticalAlign=middle;whiteSpace=wrap;rounded=0;" vertex="1" parent="1">
          <mxGeometry x="-9" y="273" width="186" height="30" as="geometry" />
        </mxCell>
        <mxCell id="QOvK0X-cOHujv5eJB9O8-31" value="4 sides are equal" style="text;html=1;align=center;verticalAlign=middle;whiteSpace=wrap;rounded=0;" vertex="1" parent="1">
          <mxGeometry x="-9" y="486" width="186" height="30" as="geometry" />
        </mxCell>
      </root>
    </mxGraphModel>
  </diagram>
</mxfile>
